<svg xmlns="http://www.w3.org/2000/svg" width="1656" height="1547" viewBox="0 0 1656 1547" version="1.1"><path d="M 371 85.555 C 353.004 89.420, 335.492 103.217, 327.280 120 C 319.974 134.932, 319.749 136.441, 319.266 173.750 C 318.876 203.945, 318.683 207.002, 317.168 207.022 C 302.234 207.219, 271.782 209.415, 262.949 210.933 C 233.250 216.035, 211.611 226.133, 195.486 242.417 C 179.045 259.019, 169.508 279.944, 164.297 310.844 C 162.586 320.990, 162.500 343.150, 162.500 773.500 C 162.500 1208.298, 162.570 1225.900, 164.344 1236 C 167.806 1255.711, 174.166 1272.515, 183.440 1286.453 C 200.438 1311.999, 225.008 1326.415, 264 1333.720 C 272.988 1335.404, 292.346 1335.504, 623.500 1335.576 C 959.813 1335.650, 973.715 1335.724, 979 1337.482 C 989.168 1340.863, 993.519 1344.452, 1005.085 1359 C 1059.845 1427.877, 1140.839 1465.548, 1228 1462.680 C 1238.175 1462.346, 1251.225 1461.356, 1257 1460.482 C 1306.656 1452.965, 1351.667 1433.642, 1390 1403.387 C 1402.656 1393.398, 1427.366 1368.070, 1437.205 1355 C 1477.387 1301.626, 1496.603 1238.608, 1492.899 1172.358 C 1488.213 1088.565, 1445.963 1012.163, 1378 964.585 C 1362.900 954.014, 1347.972 945.718, 1328.085 936.844 C 1307.155 927.504, 1302.874 923.972, 1299.868 913.558 C 1299.366 911.820, 1298.991 784.640, 1298.999 618.987 C 1299.009 413.532, 1298.687 324.230, 1297.909 316.487 C 1294.917 286.720, 1284.508 263.759, 1265 243.897 C 1253.834 232.528, 1245.106 226.263, 1231.652 219.958 C 1212.796 211.122, 1195.035 208, 1163.622 208 L 1142 208 1142 179.631 C 1142 148.191, 1140.991 139.028, 1136.157 126.580 C 1128.850 107.761, 1114.028 93.414, 1095.578 87.302 C 1088.507 84.960, 1085.879 84.623, 1074.500 84.604 C 1062.832 84.583, 1060.681 84.866, 1053.500 87.363 C 1035.329 93.683, 1022.382 105.339, 1014.470 122.500 C 1008.117 136.279, 1007.716 139.212, 1007.254 175.250 L 1006.834 208 974.510 208 L 942.185 208 941.743 175.250 C 941.242 138.098, 940.918 135.979, 933.306 120.089 C 924.849 102.433, 908.262 89.440, 889 85.382 C 872.549 81.917, 851.982 85.595, 838.768 94.366 C 826.268 102.663, 815.830 117.516, 810.898 134.027 C 808.837 140.926, 808.634 143.976, 808.249 173.750 L 807.832 206 730.416 206 L 653 206 653 178.131 C 653 147.466, 651.961 137.920, 647.378 126.471 C 639.818 107.588, 625.069 93.428, 606.578 87.302 C 599.484 84.952, 596.916 84.626, 585.500 84.626 C 574.084 84.626, 571.516 84.952, 564.422 87.302 C 540.223 95.319, 523.020 117.052, 519.031 144.644 C 518.486 148.415, 518.031 164.213, 518.020 179.750 L 518 208 485.581 208 L 453.162 208 452.734 174.250 C 452.254 136.395, 452.046 134.988, 444.730 120 C 436.491 103.122, 418.810 89.330, 400.500 85.499 C 391.841 83.688, 379.587 83.711, 371 85.555 M 374.453 125.270 C 368.155 127.813, 364.285 131.061, 361.535 136.113 C 358.997 140.777, 358.656 142.591, 358.017 154.854 C 357.627 162.321, 357.527 177.109, 357.793 187.715 L 358.277 207 385.985 207 L 413.694 207 414.355 186.750 C 415.179 161.531, 413.974 142.817, 411.177 137.377 C 408.833 132.819, 404.874 128.938, 400 126.420 C 395.620 124.157, 379.057 123.412, 374.453 125.270 M 573.707 125.533 C 564.479 128.920, 559.657 135.388, 558.045 146.545 C 557.492 150.370, 557.031 165.313, 557.020 179.750 L 557 206 585.586 206 L 614.171 206 613.836 174.750 L 613.500 143.500 610.672 137.742 C 605.904 128.030, 598.276 123.949, 585.124 124.070 C 580.931 124.109, 575.793 124.767, 573.707 125.533 M 863.453 125.270 C 852.635 129.637, 848.310 136.191, 846.946 150.284 C 845.881 161.287, 845.751 181.626, 846.652 196.344 L 847.304 207 874.998 207 L 902.691 207 903.383 188.436 C 904.189 166.769, 903.424 148.660, 901.389 141.254 C 899.699 135.107, 895.333 129.738, 889.595 126.750 C 884.635 124.168, 868.453 123.252, 863.453 125.270 M 1066.041 127.561 C 1058.286 131.170, 1052.075 136.607, 1049.626 141.927 C 1047.664 146.193, 1047.499 148.530, 1047.173 176.750 L 1046.824 207 1074.260 207 L 1101.696 207 1102.348 196.344 C 1103.298 180.823, 1103.111 159.543, 1101.955 151.545 C 1101.366 147.466, 1099.910 142.815, 1098.434 140.296 C 1094.073 132.856, 1081.552 124.982, 1074.124 125.010 C 1072.681 125.015, 1069.043 126.163, 1066.041 127.561 M 277.500 247.071 C 252.378 248.881, 231.715 258.616, 217.989 275.109 C 202.247 294.025, 199.659 310.925, 201.662 381.750 L 202.319 405 731.160 405 L 1260 405 1260 367.224 C 1260 317.411, 1258.489 306.029, 1249.369 287.142 C 1245.725 279.596, 1243.364 276.292, 1237.175 270.080 C 1225.711 258.572, 1212.468 252.368, 1190.558 248.239 C 1182.111 246.648, 1151.403 246.524, 735 246.406 C 489.425 246.336, 283.550 246.635, 277.500 247.071 M 722.500 306.997 L 333.500 307.500 329.500 309.558 C 324.089 312.342, 321 318.406, 321 326.244 C 321 336.098, 324.773 341.739, 332.855 343.970 C 335.243 344.630, 470.625 344.986, 729.732 345.015 C 1075.982 345.054, 1123.329 344.881, 1125.862 343.571 C 1129.971 341.447, 1137.735 332.482, 1138.506 328.974 C 1139.693 323.571, 1138.049 319.863, 1131.622 313.449 C 1125.240 307.078, 1122.227 305.763, 1115.125 306.247 C 1113.131 306.383, 936.450 306.720, 722.500 306.997 M 200.296 834.250 C 200.597 1192.321, 200.752 1223.117, 202.293 1230.439 C 209.813 1266.191, 226.516 1284.642, 259.628 1293.777 L 269.500 1296.500 617.598 1296.761 L 965.696 1297.022 961.381 1284.261 C 930.821 1193.899, 941.281 1109.680, 992.314 1035.205 C 1008.404 1011.723, 1031.750 986.035, 1051 970.630 C 1090.503 939.018, 1135.463 920.800, 1188.500 914.915 C 1201.419 913.482, 1232.942 913.169, 1248.250 914.323 L 1259 915.134 1259 680.567 L 1259 446 729.485 446 L 199.970 446 200.296 834.250 M 1070.360 527.476 C 1051.101 530.972, 1038.229 539.360, 1032.072 552.426 C 1027.705 561.694, 1026.998 567.133, 1027.020 591.299 C 1027.044 617.973, 1027.940 625.194, 1032.384 634.500 C 1039.965 650.376, 1048.987 657.040, 1068.501 661.178 C 1081.747 663.988, 1107.507 664.195, 1119.500 661.588 C 1141.879 656.724, 1148.007 649.626, 1160.475 614.129 C 1166.280 597.603, 1166.443 596.072, 1162.406 596.015 C 1161.695 596.005, 1161.090 591.003, 1160.681 581.750 C 1160.335 573.913, 1159.369 564.905, 1158.534 561.733 C 1154.165 545.129, 1143.536 534.324, 1126.957 529.632 C 1114.383 526.073, 1084.387 524.931, 1070.360 527.476 M 344.273 528.031 C 320.948 530.484, 306.190 541.803, 302.012 560.446 C 299.880 569.958, 298.894 593.805, 299.966 609.941 C 301.473 632.644, 304.116 640.158, 313.774 649.192 C 319.411 654.464, 324.005 657.028, 332.530 659.658 C 337.718 661.259, 341.839 661.485, 364 661.383 C 383 661.296, 391.483 660.861, 397.281 659.675 C 417.705 655.500, 427.021 646.507, 431.649 626.500 C 434.288 615.093, 434.373 570.656, 431.775 561.265 C 425.608 538.983, 412.298 530.499, 379.596 528.004 C 365.008 526.891, 355.046 526.899, 344.273 528.031 M 587.597 528.074 C 571.082 530.348, 560.064 534.952, 553.124 542.481 C 545.160 551.121, 543.604 557.394, 542.030 587.205 C 540.557 615.089, 542.620 631.176, 548.988 641.480 C 554.020 649.623, 563.688 655.988, 576.500 659.595 C 584.372 661.810, 626.319 662.802, 636.874 661.021 C 654.208 658.097, 667.262 647.473, 673.146 631.499 C 675.163 626.026, 675.392 623.247, 675.765 599.810 C 676.021 583.699, 675.754 571.395, 675.050 566.810 C 672.153 547.950, 660.116 534.573, 641.419 529.436 C 634.319 527.486, 598.463 526.579, 587.597 528.074 M 831.500 527.613 C 814.456 530.085, 805.014 533.966, 798.546 541.160 C 782.794 558.680, 777.460 598.633, 787.047 627.288 C 793.288 645.943, 800.946 653.385, 818.831 658.179 C 829.607 661.067, 869.384 662.010, 881.754 659.670 C 902.082 655.824, 910.775 647.821, 915.713 628.404 C 918.284 618.295, 918.326 569.484, 915.771 560.251 C 912.348 547.881, 905.974 539.554, 896.094 534.548 C 886.098 529.482, 876.406 527.839, 854.500 527.494 C 843.500 527.320, 833.150 527.374, 831.500 527.613 M 348.667 566.923 C 342.323 568.229, 340 571.464, 338.845 580.601 C 338.296 584.946, 337.994 594.205, 338.173 601.178 C 338.528 614.927, 339.204 616.826, 345.388 621.438 C 347.945 623.346, 349.513 623.498, 366.326 623.479 C 394.982 623.446, 395.251 623.178, 395.404 594.500 C 395.552 566.766, 395.457 566.664, 369.500 566.344 C 360.150 566.229, 350.775 566.490, 348.667 566.923 M 594.652 567.009 C 582.933 568.506, 580.956 572.609, 580.682 596 C 580.518 609.933, 580.709 611.898, 582.565 615.435 C 586.125 622.222, 590.005 623.501, 607 623.493 C 636.426 623.480, 637.794 622.140, 638.201 592.935 C 638.377 580.352, 638.213 579.012, 635.945 574.435 C 632.269 567.016, 629.451 565.974, 613.500 566.133 C 606.350 566.204, 597.868 566.598, 594.652 567.009 M 834.091 567.085 C 824.619 568.944, 822.683 574.505, 823.180 598.428 C 823.529 615.240, 823.972 616.654, 830.390 621.438 C 832.948 623.345, 834.520 623.499, 851.328 623.483 C 866.794 623.468, 870.045 623.197, 873.158 621.662 C 878.945 618.810, 879.500 616.325, 879.500 593.272 L 879.500 573.044 876.864 570.409 C 875.334 568.879, 872.397 567.419, 869.864 566.930 C 864.267 565.849, 839.848 565.954, 834.091 567.085 M 1077.905 566.970 C 1067.356 568.853, 1066.025 571.695, 1065.272 593.947 C 1064.735 609.833, 1064.824 611.005, 1066.896 615.285 C 1070.491 622.712, 1073.175 623.517, 1094 623.411 C 1122.055 623.268, 1122.274 623.049, 1122.410 594.833 C 1122.494 577.465, 1122.357 575.974, 1120.438 573.395 C 1115.644 566.951, 1114.245 566.516, 1097.679 566.325 C 1089.331 566.228, 1080.432 566.519, 1077.905 566.970 M 600.500 709.647 C 576.511 712.428, 563.218 717.677, 553.454 728.223 C 544.715 737.662, 541.572 751.151, 541.622 779 C 541.655 797.692, 543.227 809.187, 547.204 819.816 C 551.428 831.104, 563.890 840.055, 582.500 845.165 C 589.401 847.060, 593.042 847.362, 609 847.362 C 624.927 847.362, 628.600 847.059, 635.410 845.181 C 650.106 841.129, 661.169 834.693, 666.391 827.157 C 670.795 820.802, 673.003 813.526, 676.001 795.493 L 678.834 778.449 676.433 763.975 C 671.566 734.644, 666.579 725.796, 650.309 717.631 C 638.179 711.544, 615.500 707.909, 600.500 709.647 M 1080.247 710.034 C 1070.070 711.315, 1061.648 713.644, 1053.500 717.431 C 1032.251 727.308, 1026.604 740.130, 1026.604 778.500 C 1026.604 808.069, 1029.981 821.909, 1039.360 830.779 C 1052.067 842.797, 1073.410 848.818, 1099.403 847.717 C 1121.724 846.772, 1138.325 840.896, 1147.722 830.613 C 1154.928 822.729, 1156.098 819.165, 1162.262 786.328 C 1163.521 779.618, 1163.431 778.104, 1160.855 762.849 C 1156.700 738.246, 1152.968 729.817, 1142.983 722.488 C 1129.219 712.384, 1102.972 707.174, 1080.247 710.034 M 343.460 712.448 C 320.965 715.944, 311.066 723.155, 304.033 741.167 C 295.930 761.917, 295.899 794.945, 303.961 816.236 C 312.342 838.367, 326.334 845.519, 363.500 846.667 C 391.861 847.544, 407.203 843.928, 416.106 834.269 C 421.019 828.939, 426.908 816.688, 433.993 797.062 C 438.908 783.447, 439.103 782.548, 437.411 781.312 C 436.425 780.590, 435.141 780.001, 434.559 780.002 C 433.861 780.004, 433.607 776.441, 433.813 769.560 C 434.754 738.177, 423.883 720.752, 399.500 714.561 C 384.932 710.863, 359.763 709.914, 343.460 712.448 M 840.369 712.025 C 805.674 714.088, 790.131 724.078, 785.948 747 C 785.258 750.783, 784.709 764.367, 784.635 779.500 C 784.528 801.219, 784.793 806.615, 786.244 812.271 C 790.598 829.243, 799.125 837.783, 817.003 843.076 C 823.655 845.045, 827.386 845.346, 850.099 845.744 C 877.838 846.231, 882.467 845.676, 893.753 840.512 C 900.316 837.508, 908.843 829.541, 912.309 823.174 C 917.166 814.249, 917.970 807.975, 917.970 779 C 917.970 758.848, 917.608 750.964, 916.459 746.087 C 912.731 730.270, 902.362 719.442, 886.099 714.383 C 882.198 713.169, 858.660 710.826, 854 711.187 C 853.175 711.251, 847.041 711.628, 840.369 712.025 M 353.150 751.029 C 340.074 752.824, 338.555 755.833, 338.523 780 C 338.501 796.467, 338.634 797.715, 340.766 801.144 C 344.756 807.560, 347.867 808.332, 367.565 807.790 C 387.251 807.248, 390.058 806.347, 393.474 799.472 C 395.202 795.995, 395.451 793.384, 395.474 778.500 C 395.498 762.550, 395.360 761.275, 393.234 757.856 C 389.615 752.037, 385.425 750.591, 371.500 750.358 C 364.900 750.248, 356.643 750.549, 353.150 751.029 M 597.468 750.943 C 583.473 752.256, 582.234 753.993, 580.716 774.432 C 579.199 794.860, 580.845 801.724, 588.206 805.668 C 592.299 807.862, 611.829 808.694, 622.936 807.147 C 636.214 805.299, 637.821 802.284, 638.132 778.647 C 638.359 761.425, 637.170 756.685, 631.636 752.737 C 628.865 750.761, 627.161 750.482, 617 750.345 C 610.675 750.259, 601.886 750.528, 597.468 750.943 M 838.918 751.007 C 830.609 751.803, 826.978 753.572, 825.050 757.764 C 823.519 761.095, 821.784 785.761, 822.643 792 C 823.575 798.766, 826.347 803.450, 830.700 805.612 C 833.991 807.247, 836.776 807.493, 851.500 807.446 C 877.873 807.361, 878.674 806.715, 880.252 784.262 C 881.761 762.792, 879.607 754.823, 871.364 751.379 C 867.795 749.888, 852.430 749.711, 838.918 751.007 M 1079.310 751.060 C 1066.380 752.743, 1065.585 754.385, 1065.550 779.500 C 1065.509 808.153, 1064.870 807.500, 1092.955 807.500 C 1115.223 807.500, 1118.348 806.805, 1120.629 801.345 C 1122.261 797.438, 1123.642 770.768, 1122.579 763.678 C 1121.689 757.745, 1117.566 752.786, 1112.182 751.173 C 1107.843 749.873, 1088.924 749.808, 1079.310 751.060 M 347.633 894.553 C 325.005 899.049, 312.718 907.028, 305.803 921.716 C 299.165 935.817, 297.679 943.107, 297.593 962 C 297.527 976.258, 297.835 979.708, 299.857 987.386 C 306.882 1014.060, 316.430 1025.426, 334.857 1029.052 C 343.457 1030.744, 390.479 1029.673, 401 1027.546 C 416.845 1024.343, 423.832 1018.288, 426.442 1005.500 C 433.705 969.906, 432.035 927.454, 422.823 913.547 C 414.290 900.664, 393.188 892.938, 367 893.107 C 360.125 893.152, 351.410 893.802, 347.633 894.553 M 593.889 895.025 C 576.922 896.578, 565.254 900.885, 556.896 908.680 C 550.624 914.530, 548.030 918.490, 544.894 927.002 C 542.573 933.302, 542.500 934.384, 542.500 962.500 C 542.500 987.258, 542.761 992.451, 544.287 998 C 549.167 1015.748, 560.554 1024.905, 583 1029.129 C 587.051 1029.892, 597.840 1030.304, 611.635 1030.225 C 635.815 1030.085, 643.016 1029.053, 652.175 1024.411 C 658.778 1021.066, 667.066 1012.778, 670.411 1006.175 C 675.482 996.168, 676.196 990.128, 675.806 960.500 C 675.460 934.267, 675.375 933.293, 672.808 926.201 C 667.971 912.837, 658.698 903.530, 645.809 899.103 C 635.985 895.729, 609.197 893.625, 593.889 895.025 M 828.630 897.003 C 813.298 898.911, 805.248 901.887, 798.441 908.161 C 789.791 916.134, 786.446 926.172, 784.878 948.856 C 783.712 965.733, 784.486 986.857, 786.582 995.387 C 788.571 1003.479, 793.561 1012.456, 798.430 1016.699 C 803.682 1021.277, 814.390 1026.392, 824.500 1029.153 C 835.671 1032.204, 865.629 1032.470, 877 1029.620 C 892.112 1025.832, 904.626 1018.230, 909.908 1009.629 C 913.037 1004.535, 915.734 995.266, 918.448 980.286 C 921.446 963.740, 921.429 964, 919.500 964 C 918.251 964, 918 962.010, 918 952.088 C 918 920.398, 908.683 905.056, 885.446 898.483 C 878.556 896.534, 840.385 895.539, 828.630 897.003 M 359.433 934.875 C 340.164 935.922, 338.891 937.584, 338.210 962.599 C 337.811 977.275, 337.956 979.112, 339.847 983.388 C 341.552 987.241, 342.753 988.445, 346.574 990.136 C 350.807 992.008, 352.771 992.161, 368.363 991.828 C 387.994 991.409, 390.411 990.704, 393.477 984.500 C 395.215 980.983, 395.456 978.387, 395.477 963 C 395.498 947.274, 395.297 945.156, 393.500 942.105 C 388.966 934.407, 384.703 933.502, 359.433 934.875 M 598.500 934.957 C 584.077 936.383, 582.312 938.423, 580.802 955.405 C 578.654 979.557, 581.583 989.012, 592.148 992.043 C 593.680 992.482, 602.265 992.495, 611.225 992.071 C 636.952 990.855, 637.879 989.783, 638.145 960.939 C 638.290 945.192, 636.628 940.387, 629.834 936.906 C 624.870 934.363, 612.369 933.586, 598.500 934.957 M 844.296 934.937 C 825.738 935.854, 824.277 937.506, 822.925 959.106 C 821.595 980.355, 823.331 986.490, 831.728 990.204 C 835.871 992.037, 837.847 992.181, 853.394 991.782 C 865.003 991.484, 871.408 990.904, 873.325 989.977 C 877.938 987.746, 879.215 983.833, 880.305 968.603 C 881.842 947.102, 879.568 939.045, 870.993 935.614 C 866.844 933.954, 865.098 933.909, 844.296 934.937 M 1197 953.704 C 1114.146 962.796, 1042.727 1012.320, 1006.935 1085.500 C 996.864 1106.089, 990.439 1126.057, 986.327 1149.543 C 983.837 1163.759, 983.831 1202.940, 986.315 1219 C 998.696 1299.040, 1043.527 1363.223, 1111.257 1397.876 C 1143.072 1414.153, 1175.059 1422.259, 1213 1423.659 C 1335.192 1428.166, 1438.997 1337.314, 1453.522 1213.150 C 1460.344 1154.826, 1444.085 1095.440, 1408.239 1047.763 C 1399.061 1035.556, 1379.663 1015.312, 1368.500 1006.292 C 1333.622 978.109, 1292.291 960.261, 1248.659 954.542 C 1237.872 953.128, 1206.839 952.625, 1197 953.704 M 590.164 1078.065 C 582.873 1079.354, 570.588 1083.570, 565.610 1086.492 C 559.735 1089.940, 553.433 1096.734, 551.007 1102.236 C 543.188 1119.968, 541.888 1155.844, 548.034 1184.305 C 551.287 1199.371, 556.928 1206.885, 568.200 1211.168 C 575.623 1213.988, 586.812 1214.664, 612.675 1213.854 C 644.869 1212.845, 655.924 1210.254, 663.417 1201.960 C 667.570 1197.363, 668.456 1194.352, 670.970 1176.306 C 675.862 1141.180, 673.898 1112.740, 665.602 1098.584 C 660.891 1090.545, 649.948 1083.791, 635.197 1079.818 C 626.416 1077.453, 599.540 1076.407, 590.164 1078.065 M 348.500 1079.041 C 334.188 1081.268, 321.734 1086.457, 314.246 1093.313 C 309.041 1098.077, 302.315 1111.207, 299.549 1122 C 297.014 1131.893, 296.480 1150.569, 298.398 1162.237 C 300.263 1173.579, 305.174 1189.743, 308.522 1195.558 C 313.544 1204.278, 322.575 1210.456, 333.828 1212.870 C 341.734 1214.565, 389.762 1214.334, 398.131 1212.560 C 411.969 1209.627, 423.846 1200.337, 428.058 1189.153 C 432.597 1177.100, 433.416 1170.710, 433.459 1147 C 433.502 1123.281, 432.394 1114.751, 427.910 1104.289 C 423.635 1094.317, 410.916 1085.934, 393.048 1081.313 C 382.281 1078.529, 359.316 1077.357, 348.500 1079.041 M 1356.938 1097.545 C 1354.429 1098.318, 1342.729 1104.504, 1330.938 1111.290 C 1319.147 1118.077, 1270.125 1146.358, 1222 1174.138 C 1173.875 1201.917, 1130.662 1226.733, 1125.971 1229.283 L 1117.442 1233.921 1109.971 1220.433 C 1100.436 1203.218, 1094.144 1194.620, 1089.282 1192.160 C 1087.202 1191.108, 1082.125 1189.498, 1078 1188.582 C 1073.875 1187.667, 1069.740 1186.690, 1068.812 1186.411 C 1067.440 1185.999, 1066.552 1187.692, 1064.062 1195.464 C 1062.378 1200.722, 1061 1206.730, 1061 1208.815 C 1061 1213.489, 1066.302 1224.690, 1076.929 1242.467 C 1081.214 1249.635, 1086.547 1258.650, 1088.779 1262.500 C 1093.259 1270.225, 1098.990 1276.313, 1103.315 1277.940 C 1107.855 1279.649, 1115.091 1279.123, 1121 1276.655 C 1124.025 1275.392, 1141.125 1265.789, 1159 1255.317 C 1192.550 1235.659, 1258.357 1197.608, 1329 1157.017 C 1351.275 1144.217, 1371.352 1132.247, 1373.616 1130.416 C 1381.166 1124.307, 1382.769 1117.284, 1378.617 1108.500 C 1375.763 1102.464, 1371.542 1098.303, 1366.931 1096.980 C 1362.767 1095.786, 1362.619 1095.794, 1356.938 1097.545 M 356.983 1118.927 C 340.548 1120.356, 339.040 1122.564, 338.254 1146.352 C 337.640 1164.930, 338.379 1168.662, 343.435 1172.518 C 348.303 1176.231, 355.351 1177.128, 371.595 1176.102 C 394.578 1174.650, 395.230 1173.852, 395.394 1147 C 395.490 1131.188, 395.307 1129.172, 393.500 1126.098 C 389.301 1118.954, 379.287 1116.988, 356.983 1118.927 M 598.206 1118.927 C 582.481 1120.192, 581.181 1122.343, 580.778 1147.762 C 580.473 1167, 581.327 1170.160, 587.786 1173.718 C 593.098 1176.643, 598.665 1177.149, 614.115 1176.108 C 636.515 1174.599, 637.218 1173.761, 637.813 1147.880 C 638.288 1127.184, 637.532 1124.339, 630.612 1120.793 C 625.873 1118.365, 613.826 1117.671, 598.206 1118.927" stroke="none" fill="#fffcfc" fill-rule="evenodd"/><path d="" stroke="none" fill="none" fill-rule="evenodd"/></svg>